<svg width="154" height="174" viewBox="0 0 154 174" fill="none" xmlns="http://www.w3.org/2000/svg">
    <path d="M152.648 106.973c-.558-1.549-.876-1.989-1.421-2.906-2.795-4.682-54.01-86.818-58.477-93.708-.57-.878-.849-1.39-1.937-2.606C86.262 2.666 79.317.234 77.234.033c-2.676-.26-5.047.82-6.864 2.792-.788.855-1.457 1.892-1.772 2.58C67.58 7.617 24.249 111.207 23.74 113.47c-.7 3.151.413 5.259 2.94 6.357 1.055.458 1.348.497 4.801 1.077 4.11.69 105.323 17.226 107.222 17.267 3.998.093 6.965-1.781 8.885-5.195.512-.91 4.16-9.783 4.467-10.688 1.678-4.945 2.352-10.424.589-15.32l.003.004z" fill="#EBE47A" style="mix-blend-mode:soft-light" opacity=".85"/>
    <path d="M152.062 86.544c-.782-1.697-36.938-59.496-40.684-65.343-.73-1.14-1.034-1.62-1.881-2.581-3.952-4.508-9.453-7.076-15.236-8.465-.862-.206-1.566-.347-9.75-1.685C67.154 5.636 67.72 5.73 66.387 5.802c-3.344.181-5.856 1.785-7.65 4.612-.726 1.143-.49.646-13.726 32.401-33.152 79.647-31.482 75.57-31.748 77.074-.524 2.979.633 5.043 3.442 6.112 1.044.397-1.688.011 57.48 9.565 55.75 9.043 53.59 8.634 54.529 8.623 2.879-.039 5.173-1.08 6.924-3.015.749-.826 1.391-1.806 1.759-2.566.714-1.486 13.99-33.3 14.707-35.416 1.858-5.5 2.387-11.4-.04-16.65l-.003.002z" fill="#E5E0AB" style="mix-blend-mode:soft-light" opacity=".85"/>
    <path d="M152.062 67.553c-.542-1.166-22.056-35.922-23.893-38.069-4.218-4.92-10.688-7.804-16.723-8.918-2.799-.517-52.842-8.71-54.362-8.77-3.94-.164-7.006 1.572-9.009 5.056-.962 1.675-44.46 106.308-44.942 108.03-.965 3.44.245 6.123 3.664 7.253 2.15.708 108.154 17.732 110.527 18.02.887.109 2.117.023 3.09-.179 2.925-.603 5.023-2.509 6.461-5.109.699-1.261 22.978-54.934 24.79-59.478a30.947 30.947 0 0 0 1.697-6.155c.651-4 .418-7.97-1.3-11.677v-.004z" fill="#E5E0AB" style="mix-blend-mode:soft-light" opacity=".85"/>
    <path d="M152.629 49.998c-.494-1.382-.562-1.534-3.153-5.679-1.658-2.652-2.058-3.26-2.741-4.06-3.87-4.543-9.374-7.229-15.1-8.635-1.266-.311-1.642-.386-11.588-2.022-77.085-12.639-73.131-11.83-74.073-11.81-2.736.06-5.04 1.023-6.878 3.08-.735.824-1.407 1.865-1.734 2.578-1.2 2.606-34.758 82.868-35.808 86.4-1.396 4.698-1.827 9.574-.18 14.168.502 1.4.774 1.785 1.446 2.902.628 1.043 2.82 4.56 3.486 5.551 1.378 2.046 3.93 4.506 7.115 6.364 2.802 1.635 5.86 2.774 8.986 3.541 1.895.465 6.008 1.153 52.806 8.728 34.017 5.513 31.705 5.118 32.882 5.093 2.702-.061 5.021-1.06 6.872-3.154.699-.789 1.352-1.815 1.697-2.565.855-1.863 34.709-82.75 35.818-86.476 1.359-4.569 1.76-9.499.147-14.006v.002z" fill="#D0EAC5" style="mix-blend-mode:soft-light" opacity=".85"/>
    <path d="M147.205 41.858c-1.622-.533-107.156-17.612-110.51-18.02-.66-.082-2.266-.107-3.806.351-1.908.57-3.574 1.706-4.953 3.637-.764 1.07-.987 1.62-1.486 2.784-2.03 4.73-23.195 55.523-24.375 58.665-.353.942-.91 2.743-1.281 4.622-.838 4.23-.686 8.594 1.111 12.473.772 1.663 20.475 33.023 21.113 34.028 1.683 2.645 1.969 3.117 2.783 4.074 3.839 4.515 9.365 7.19 15.098 8.596 3.074.751 54.855 9.08 56.005 9.127 3.925.159 6.981-1.54 9.004-5.029.935-1.613 44.451-106.247 44.959-108.058 1.025-3.659-.459-6.195-3.662-7.25z" fill="#D0EAC5" style="mix-blend-mode:soft-light" opacity=".85"/>
    <path d="M136.708 47.79c-1.35-.415-109.167-18-111.335-17.99-3.265.013-5.985 1.34-7.948 4.195-.71 1.034-.882 1.48-1.456 2.817-2.001 4.67-12.154 29.096-13.476 32.413C.533 74.137-.452 79.804.989 84.89c.252.887.698 2.157 1.148 2.95 1.67 2.95 17.525 28.301 22.106 35.64 20.273 32.515 19.154 30.68 20.513 32.181 3.966 4.386 9.565 6.934 15.28 8.245 1.935.444 22.382 3.711 24.706 4.061 1.039.156 1.787.317 3.167.202 3.391-.288 5.814-2.026 7.527-4.885.556-.928 1.139-2.128 32.449-77.536 13.367-32.132 12.705-30.476 12.9-31.998.365-2.87-.824-4.96-4.079-5.96h.002z" fill="#D9F0B3" style="mix-blend-mode:soft-light" opacity=".85"/>
    <path d="M125.56 53.614C122.252 52.988 17.31 35.82 15.007 35.81c-3.968-.014-6.997 2.069-8.728 5.44-.413.805-3.278 7.747-3.868 9.22C.267 55.815-.593 62.208 1.58 67.623c.424 1.06.773 1.606 1.508 2.822 4.998 8.256 55.814 89.638 58.5 93.706 2.954 4.478 7.834 7.505 12.895 9.229.509.175 1.024.338 1.546.465.703.172 1.95.225 2.908.034 2.63-.526 4.671-2.244 6.06-4.549 1.132-1.878 44.57-106.51 45.053-108.027 1.321-4.157-.549-6.945-4.487-7.691l-.002.002z" fill="#D9F0B3" style="mix-blend-mode:soft-light" opacity=".85"/>
    <path d="M119.829 63.152c-.619-1.995-2.62-3.147-4.633-3.528-1.828-.347-105.319-17.394-108.867-17.39-.512 0-1.039.01-1.536.143-1.02.277-1.928.892-2.473 1.611-.97 1.284-1.109 3.18-.796 4.25.304 1.036.715 1.705 1.404 2.862 4.497 7.523 68.805 110.707 69.978 112.039 3.126 3.548 5.93 1.032 8.113-3.119 1.232-2.348 37.932-90.711 38.597-92.612.397-1.13.655-2.84.215-4.259l-.002.003z" fill="#DBF3AD" style="mix-blend-mode:soft-light" opacity=".85"/>
    <path d="M106.58 66.198c-1.125-.503-1.792-.576-3.106-.807-3.194-.556-74.172-12.213-77.525-12.462-4.764-.354-8.415.694-6.668 5.163.388.992-1.853-2.395 40.59 65.513 13.14 21.008 12.692 20.264 13.382 20.944 3.203 3.168 5.896.171 7.94-3.845.722-1.418 27.73-66.066 28.186-67.863.758-2.979.039-5.365-2.801-6.64l.002-.003z" fill="#DEF4A1" style="mix-blend-mode:soft-light" opacity=".85"/>
    <path d="M95.078 71.797c-1.105-.337-48.065-7.96-50.224-8.149-4.62-.401-8.646.348-7.197 4.749.309.932.604 1.415 1.502 2.895 4.066 6.685 30.909 49.715 33.191 53.143 1.062 1.593 2.636 2.875 4.453 2.308 2.122-.663 3.952-3.973 4.83-5.999 1.505-3.464 16.875-40.242 17.265-41.612 1.041-3.655-.127-6.205-3.82-7.337v.002z" fill="#E2F7A2" style="mix-blend-mode:soft-light" opacity=".85"/>
    <path d="M87.959 79.899c-.785-1.04-1.936-1.663-3.168-2.051-.512-.163-1.204-.29-5.63-1.016-15.226-2.494-15.86-2.61-18.098-2.57-3.108.054-5.674.94-5.097 3.997.095.506.258 1 .458 1.474.272.647.247.763 11.398 18.563 4.93 7.863 4.832 7.652 5.354 8.19 2.289 2.361 4.447 1.563 6.39-1.074a19.137 19.137 0 0 0 1.634-2.724c.806-1.672 6.337-15.04 7.049-16.868.74-1.901.935-4.292-.293-5.919l.003-.002z" fill="#E7FC9C" style="mix-blend-mode:soft-light" opacity=".85"/>
</svg>
