<svg width="200" height="180" viewBox="0 0 200 180" fill="none" xmlns="http://www.w3.org/2000/svg">
    <g clip-path="url(#tx499ih3wa)">
        <g style="mix-blend-mode:screen">
            <path d="m199.286 148.072-83.695-32.028.094-9.502 84.079 30.04-.478 11.49z" fill="url(#aso2v4oosb)"/>
            <path d="m199.764 136.582-84.079-30.039.113-.02 84.088 30.03-.122.029z" fill="url(#vjfc6fccoc)"/>
            <path d="m199.886 136.553-.475 11.489-.125.03.478-11.49.122-.029z" fill="url(#us1ijrj5od)"/>
        </g>
        <g style="mix-blend-mode:screen">
            <path d="m188.142 150.809-82.721-32.949.187-30.853 83.931 26.327-1.397 37.475z" fill="url(#6doo5mbuie)"/>
            <path d="m189.539 113.334-83.931-26.328.119-.015 83.941 26.319-.129.024z" fill="url(#40vprdemyf)"/>
            <path d="m189.668 113.31-1.4 37.468-.126.031 1.397-37.475.129-.024z" fill="url(#kzlyfaqxvg)"/>
        </g>
        <g style="mix-blend-mode:screen">
            <path d="m176.637 153.634-81.653-33.91.117-53.089 83.674 22.221-2.138 64.778z" fill="url(#wdu1mcf11h)"/>
            <path d="m178.775 88.856-83.674-22.22.123-.014 83.685 22.215-.134.02z" fill="url(#kx3g7amxyi)"/>
            <path d="m178.909 88.837-2.14 64.764-.132.033 2.138-64.778.134-.02z" fill="url(#erexszayzj)"/>
        </g>
        <path d="m164.892 156.517-80.5-34.901-.256-76.242 83.29 17.675-2.534 93.468z" fill="url(#xtbythekkk)" style="mix-blend-mode:screen"/>
        <path d="M152.618 159.531 73.391 123.58l-.713-100.42L155.44 35.8l-2.823 123.73z" fill="url(#m5oxm3n5ml)" style="mix-blend-mode:screen"/>
        <path d="M139.928 162.647 62.088 125.6 60.699 0l82.071 7.073-2.841 155.574z" fill="url(#fbga9vmhkm)" style="mix-blend-mode:screen"/>
        <path d="m126.8 165.871-76.323-38.198-1.62-103.149 79.617 13.45L126.8 165.87z" fill="url(#wmokvxn1zn)" style="mix-blend-mode:screen"/>
        <path d="m113.212 169.206-74.675-39.401-1.654-80.404 77.085 20.01-.756 99.795z" fill="url(#dv7yazunbo)" style="mix-blend-mode:screen"/>
        <g style="mix-blend-mode:screen">
            <path d="m98.977 172.703-72.86-40.678-1.349-57.458 74.48 26.744-.271 71.392z" fill="url(#44s67557jp)"/>
            <path d="m99.248 101.311-74.48-26.744.146-.017 74.501 26.734-.167.027z" fill="url(#dokdtlbybq)"/>
            <path d="m99.415 101.284-.274 71.378-.164.041.27-71.392.168-.027z" fill="url(#mueaht71er)"/>
        </g>
        <g style="mix-blend-mode:screen">
            <path d="M84.387 176.285 13.48 134.281l-.965-34.253 71.798 33.653.074 42.604z" fill="url(#vmxrugnuis)"/>
            <path d="m84.313 133.681-71.798-33.653.146-.022 71.822 33.642-.17.033z" fill="url(#uw4i579ydt)"/>
            <path d="m84.483 133.648.072 42.596-.168.041-.074-42.604.17-.033z" fill="url(#v11zeufogu)"/>
        </g>
        <g style="mix-blend-mode:screen">
            <path d="M69.256 180 .472 136.604l-.358-10.816 69.04 40.747.102 13.465z" fill="url(#1ftdy9f0qv)"/>
            <path d="M69.155 166.535.114 125.788l.148-.025 69.066 40.731-.173.041z" fill="url(#2tu0el0muw)"/>
            <path d="m69.328 166.494.101 13.463-.173.043-.101-13.465.173-.041z" fill="url(#2ixtjhcpix)"/>
        </g>
        <g style="mix-blend-mode:color-dodge">
            <path d="m199.286 148.072-83.695-32.028.094-9.502 84.079 30.04-.478 11.49z" fill="url(#zu8c5x45ay)"/>
            <path d="m199.764 136.582-84.079-30.039.113-.02 84.088 30.03-.122.029z" fill="url(#fyaizeawvz)"/>
            <path d="m199.886 136.553-.475 11.489-.125.03.478-11.49.122-.029z" fill="url(#tel7ue11vA)"/>
        </g>
        <g style="mix-blend-mode:color-dodge">
            <path d="m188.142 150.809-82.721-32.949.187-30.853 83.931 26.327-1.397 37.475z" fill="url(#cphmir8a2B)"/>
            <path d="m189.539 113.334-83.931-26.328.119-.015 83.941 26.319-.129.024z" fill="url(#7oq11isywC)"/>
            <path d="m189.668 113.31-1.4 37.468-.126.031 1.397-37.475.129-.024z" fill="url(#23nf99go4D)"/>
        </g>
        <g style="mix-blend-mode:color-dodge">
            <path d="m176.637 153.634-81.653-33.91.117-53.089 83.674 22.221-2.138 64.778z" fill="url(#t17q0fmx0E)"/>
            <path d="m178.775 88.856-83.674-22.22.123-.014 83.685 22.215-.134.02z" fill="url(#ck1r5h6tsF)"/>
            <path d="m178.909 88.837-2.14 64.764-.132.033 2.138-64.778.134-.02z" fill="url(#d9f6lhi2oG)"/>
        </g>
        <path d="m164.892 156.517-80.5-34.901-.256-76.242 83.29 17.675-2.534 93.468z" fill="url(#gsx5purnwH)" style="mix-blend-mode:color-dodge"/>
        <path d="M152.618 159.531 73.391 123.58l-.713-100.42L155.44 35.8l-2.823 123.73z" fill="url(#2ag0ygr37I)" style="mix-blend-mode:color-dodge"/>
        <path d="M139.928 162.647 62.088 125.6 60.699 0l82.071 7.073-2.841 155.574z" fill="url(#gvzeqbobbJ)" style="mix-blend-mode:color-dodge"/>
        <path d="m126.8 165.871-76.323-38.198-1.62-103.149 79.617 13.45L126.8 165.87z" fill="url(#et66jwq43K)" style="mix-blend-mode:color-dodge"/>
        <path d="m113.212 169.206-74.675-39.401-1.654-80.404 77.085 20.01-.756 99.795z" fill="url(#n950lzxtdL)" style="mix-blend-mode:color-dodge"/>
        <g style="mix-blend-mode:color-dodge">
            <path d="m98.977 172.703-72.86-40.678-1.349-57.458 74.48 26.744-.271 71.392z" fill="url(#19fer9ir3M)"/>
            <path d="m99.248 101.311-74.48-26.744.146-.017 74.501 26.734-.167.027z" fill="url(#6w4rf9zftN)"/>
            <path d="m99.415 101.284-.274 71.378-.164.041.27-71.392.168-.027z" fill="url(#qsrcit0lvO)"/>
        </g>
        <g style="mix-blend-mode:color-dodge">
            <path d="M84.387 176.285 13.48 134.281l-.965-34.253 71.798 33.653.074 42.604z" fill="url(#kkgtzhkv7P)"/>
            <path d="m84.313 133.681-71.798-33.653.146-.022 71.822 33.642-.17.033z" fill="url(#mfgvu99d8Q)"/>
            <path d="m84.483 133.648.072 42.596-.168.041-.074-42.604.17-.033z" fill="url(#fkacv6i9gR)"/>
        </g>
        <g style="mix-blend-mode:color-dodge">
            <path d="M69.256 180 .472 136.604l-.358-10.816 69.04 40.747.102 13.465z" fill="url(#dcw9vl5vsS)"/>
            <path d="M69.155 166.535.114 125.788l.148-.025 69.066 40.731-.173.041z" fill="url(#foekoiibpT)"/>
            <path d="m69.328 166.494.101 13.463-.173.043-.101-13.465.173-.041z" fill="url(#0u36f6qz8U)"/>
        </g>
    </g>
    <defs>
        <linearGradient id="aso2v4oosb" x1="198.314" y1="149.754" x2="117.651" y2="103.143" gradientUnits="userSpaceOnUse">
            <stop stop-color="#10241A"/>
            <stop offset=".51" stop-color="#000F12"/>
            <stop offset="1" stop-color="#140033"/>
        </linearGradient>
        <linearGradient id="vjfc6fccoc" x1="195.864" y1="143.514" x2="119.74" y2="99.525" gradientUnits="userSpaceOnUse">
            <stop stop-color="#10241A"/>
            <stop offset=".51" stop-color="#000F12"/>
            <stop offset="1" stop-color="#140033"/>
        </linearGradient>
        <linearGradient id="us1ijrj5od" x1="201.936" y1="143.667" x2="197.236" y2="140.952" gradientUnits="userSpaceOnUse">
            <stop stop-color="#10241A"/>
            <stop offset=".51" stop-color="#000F12"/>
            <stop offset="1" stop-color="#140033"/>
        </linearGradient>
        <linearGradient id="6doo5mbuie" x1="193.238" y1="141.991" x2="103.726" y2="90.267" gradientUnits="userSpaceOnUse">
            <stop stop-color="#10241A"/>
            <stop offset=".51" stop-color="#000F12"/>
            <stop offset="1" stop-color="#140033"/>
        </linearGradient>
        <linearGradient id="40vprdemyf" x1="184.86" y1="121.63" x2="110.45" y2="78.631" gradientUnits="userSpaceOnUse">
            <stop stop-color="#10241A"/>
            <stop offset=".51" stop-color="#000F12"/>
            <stop offset="1" stop-color="#140033"/>
        </linearGradient>
        <linearGradient id="kzlyfaqxvg" x1="196.54" y1="136.464" x2="181.272" y2="127.64" gradientUnits="userSpaceOnUse">
            <stop stop-color="#10241A"/>
            <stop offset=".51" stop-color="#000F12"/>
            <stop offset="1" stop-color="#140033"/>
        </linearGradient>
        <linearGradient id="wdu1mcf11h" x1="188.083" y1="133.828" x2="89.27" y2="76.729" gradientUnits="userSpaceOnUse">
            <stop stop-color="#10241A"/>
            <stop offset=".51" stop-color="#000F12"/>
            <stop offset="1" stop-color="#140033"/>
        </linearGradient>
        <linearGradient id="kx3g7amxyi" x1="173.244" y1="98.64" x2="100.799" y2="56.778" gradientUnits="userSpaceOnUse">
            <stop stop-color="#10241A"/>
            <stop offset=".51" stop-color="#000F12"/>
            <stop offset="1" stop-color="#140033"/>
        </linearGradient>
        <linearGradient id="erexszayzj" x1="191.047" y1="128.892" x2="164.504" y2="113.553" gradientUnits="userSpaceOnUse">
            <stop stop-color="#10241A"/>
            <stop offset=".51" stop-color="#000F12"/>
            <stop offset="1" stop-color="#140033"/>
        </linearGradient>
        <linearGradient id="xtbythekkk" x1="182.962" y1="125.245" x2="74.274" y2="62.44" gradientUnits="userSpaceOnUse">
            <stop stop-color="#10241A"/>
            <stop offset=".51" stop-color="#000F12"/>
            <stop offset="1" stop-color="#140033"/>
        </linearGradient>
        <linearGradient id="m5oxm3n5ml" x1="177.67" y1="116.178" x2="58.664" y2="47.411" gradientUnits="userSpaceOnUse">
            <stop stop-color="#10241A"/>
            <stop offset=".51" stop-color="#000F12"/>
            <stop offset="1" stop-color="#140033"/>
        </linearGradient>
        <linearGradient id="fbga9vmhkm" x1="172.293" y1="106.638" x2="42.436" y2="31.6" gradientUnits="userSpaceOnUse">
            <stop stop-color="#10241A"/>
            <stop offset=".51" stop-color="#000F12"/>
            <stop offset="1" stop-color="#140033"/>
        </linearGradient>
        <linearGradient id="wmokvxn1zn" x1="153.461" y1="119.733" x2="33.797" y2="50.586" gradientUnits="userSpaceOnUse">
            <stop stop-color="#10241A"/>
            <stop offset=".51" stop-color="#000F12"/>
            <stop offset="1" stop-color="#140033"/>
        </linearGradient>
        <linearGradient id="dv7yazunbo" x1="134.135" y1="132.998" x2="25.014" y2="69.941" gradientUnits="userSpaceOnUse">
            <stop stop-color="#10241A"/>
            <stop offset=".51" stop-color="#000F12"/>
            <stop offset="1" stop-color="#140033"/>
        </linearGradient>
        <linearGradient id="44s67557jp" x1="114.188" y1="146.378" x2="16.044" y2="89.665" gradientUnits="userSpaceOnUse">
            <stop stop-color="#10241A"/>
            <stop offset=".51" stop-color="#000F12"/>
            <stop offset="1" stop-color="#140033"/>
        </linearGradient>
        <linearGradient id="dokdtlbybq" x1="95.875" y1="107.413" x2="28.34" y2="68.388" gradientUnits="userSpaceOnUse">
            <stop stop-color="#10241A"/>
            <stop offset=".51" stop-color="#000F12"/>
            <stop offset="1" stop-color="#140033"/>
        </linearGradient>
        <linearGradient id="mueaht71er" x1="114.613" y1="145.885" x2="83.785" y2="128.073" gradientUnits="userSpaceOnUse">
            <stop stop-color="#10241A"/>
            <stop offset=".51" stop-color="#000F12"/>
            <stop offset="1" stop-color="#140033"/>
        </linearGradient>
        <linearGradient id="vmxrugnuis" x1="93.61" y1="160.324" x2="6.695" y2="110.099" gradientUnits="userSpaceOnUse">
            <stop stop-color="#10241A"/>
            <stop offset=".51" stop-color="#000F12"/>
            <stop offset="1" stop-color="#140033"/>
        </linearGradient>
        <linearGradient id="uw4i579ydt" x1="82.772" y1="136.61" x2="14.255" y2="97.015" gradientUnits="userSpaceOnUse">
            <stop stop-color="#10241A"/>
            <stop offset=".51" stop-color="#000F12"/>
            <stop offset="1" stop-color="#140033"/>
        </linearGradient>
        <linearGradient id="v11zeufogu" x1="93.747" y1="160.337" x2="75.127" y2="149.578" gradientUnits="userSpaceOnUse">
            <stop stop-color="#10241A"/>
            <stop offset=".51" stop-color="#000F12"/>
            <stop offset="1" stop-color="#140033"/>
        </linearGradient>
        <linearGradient id="1ftdy9f0qv" x1="72.36" y1="174.628" x2="-2.958" y2="131.106" gradientUnits="userSpaceOnUse">
            <stop stop-color="#10241A"/>
            <stop offset=".51" stop-color="#000F12"/>
            <stop offset="1" stop-color="#140033"/>
        </linearGradient>
        <linearGradient id="2tu0el0muw" x1="69.492" y1="166.213" x2="-.032" y2="126.04" gradientUnits="userSpaceOnUse">
            <stop stop-color="#10241A"/>
            <stop offset=".51" stop-color="#000F12"/>
            <stop offset="1" stop-color="#140033"/>
        </linearGradient>
        <linearGradient id="2ixtjhcpix" x1="72.304" y1="174.985" x2="66.283" y2="171.505" gradientUnits="userSpaceOnUse">
            <stop stop-color="#10241A"/>
            <stop offset=".51" stop-color="#000F12"/>
            <stop offset="1" stop-color="#140033"/>
        </linearGradient>
        <linearGradient id="zu8c5x45ay" x1="198.314" y1="149.754" x2="117.651" y2="103.143" gradientUnits="userSpaceOnUse">
            <stop stop-color="#10241A"/>
            <stop offset=".51" stop-color="#000F12"/>
            <stop offset="1" stop-color="#140033"/>
        </linearGradient>
        <linearGradient id="fyaizeawvz" x1="195.864" y1="143.514" x2="119.74" y2="99.525" gradientUnits="userSpaceOnUse">
            <stop stop-color="#10241A"/>
            <stop offset=".51" stop-color="#000F12"/>
            <stop offset="1" stop-color="#140033"/>
        </linearGradient>
        <linearGradient id="tel7ue11vA" x1="201.936" y1="143.667" x2="197.236" y2="140.952" gradientUnits="userSpaceOnUse">
            <stop stop-color="#10241A"/>
            <stop offset=".51" stop-color="#000F12"/>
            <stop offset="1" stop-color="#140033"/>
        </linearGradient>
        <linearGradient id="cphmir8a2B" x1="193.238" y1="141.991" x2="103.726" y2="90.267" gradientUnits="userSpaceOnUse">
            <stop stop-color="#10241A"/>
            <stop offset=".51" stop-color="#000F12"/>
            <stop offset="1" stop-color="#140033"/>
        </linearGradient>
        <linearGradient id="7oq11isywC" x1="184.86" y1="121.63" x2="110.45" y2="78.631" gradientUnits="userSpaceOnUse">
            <stop stop-color="#10241A"/>
            <stop offset=".51" stop-color="#000F12"/>
            <stop offset="1" stop-color="#140033"/>
        </linearGradient>
        <linearGradient id="23nf99go4D" x1="196.54" y1="136.464" x2="181.272" y2="127.64" gradientUnits="userSpaceOnUse">
            <stop stop-color="#10241A"/>
            <stop offset=".51" stop-color="#000F12"/>
            <stop offset="1" stop-color="#140033"/>
        </linearGradient>
        <linearGradient id="t17q0fmx0E" x1="188.083" y1="133.828" x2="89.27" y2="76.729" gradientUnits="userSpaceOnUse">
            <stop stop-color="#10241A"/>
            <stop offset=".51" stop-color="#000F12"/>
            <stop offset="1" stop-color="#140033"/>
        </linearGradient>
        <linearGradient id="ck1r5h6tsF" x1="173.244" y1="98.64" x2="100.799" y2="56.778" gradientUnits="userSpaceOnUse">
            <stop stop-color="#10241A"/>
            <stop offset=".51" stop-color="#000F12"/>
            <stop offset="1" stop-color="#140033"/>
        </linearGradient>
        <linearGradient id="d9f6lhi2oG" x1="191.047" y1="128.892" x2="164.504" y2="113.553" gradientUnits="userSpaceOnUse">
            <stop stop-color="#10241A"/>
            <stop offset=".51" stop-color="#000F12"/>
            <stop offset="1" stop-color="#140033"/>
        </linearGradient>
        <linearGradient id="gsx5purnwH" x1="182.962" y1="125.245" x2="74.274" y2="62.44" gradientUnits="userSpaceOnUse">
            <stop stop-color="#10241A"/>
            <stop offset=".51" stop-color="#000F12"/>
            <stop offset="1" stop-color="#140033"/>
        </linearGradient>
        <linearGradient id="2ag0ygr37I" x1="177.67" y1="116.178" x2="58.664" y2="47.411" gradientUnits="userSpaceOnUse">
            <stop stop-color="#10241A"/>
            <stop offset=".51" stop-color="#000F12"/>
            <stop offset="1" stop-color="#140033"/>
        </linearGradient>
        <linearGradient id="gvzeqbobbJ" x1="172.293" y1="106.638" x2="42.436" y2="31.6" gradientUnits="userSpaceOnUse">
            <stop stop-color="#10241A"/>
            <stop offset=".51" stop-color="#000F12"/>
            <stop offset="1" stop-color="#140033"/>
        </linearGradient>
        <linearGradient id="et66jwq43K" x1="153.461" y1="119.733" x2="33.797" y2="50.586" gradientUnits="userSpaceOnUse">
            <stop stop-color="#10241A"/>
            <stop offset=".51" stop-color="#000F12"/>
            <stop offset="1" stop-color="#140033"/>
        </linearGradient>
        <linearGradient id="n950lzxtdL" x1="134.135" y1="132.998" x2="25.014" y2="69.941" gradientUnits="userSpaceOnUse">
            <stop stop-color="#10241A"/>
            <stop offset=".51" stop-color="#000F12"/>
            <stop offset="1" stop-color="#140033"/>
        </linearGradient>
        <linearGradient id="19fer9ir3M" x1="114.188" y1="146.378" x2="16.044" y2="89.665" gradientUnits="userSpaceOnUse">
            <stop stop-color="#10241A"/>
            <stop offset=".51" stop-color="#000F12"/>
            <stop offset="1" stop-color="#140033"/>
        </linearGradient>
        <linearGradient id="6w4rf9zftN" x1="95.875" y1="107.413" x2="28.34" y2="68.388" gradientUnits="userSpaceOnUse">
            <stop stop-color="#10241A"/>
            <stop offset=".51" stop-color="#000F12"/>
            <stop offset="1" stop-color="#140033"/>
        </linearGradient>
        <linearGradient id="qsrcit0lvO" x1="114.613" y1="145.885" x2="83.785" y2="128.073" gradientUnits="userSpaceOnUse">
            <stop stop-color="#10241A"/>
            <stop offset=".51" stop-color="#000F12"/>
            <stop offset="1" stop-color="#140033"/>
        </linearGradient>
        <linearGradient id="kkgtzhkv7P" x1="93.61" y1="160.324" x2="6.695" y2="110.099" gradientUnits="userSpaceOnUse">
            <stop stop-color="#10241A"/>
            <stop offset=".51" stop-color="#000F12"/>
            <stop offset="1" stop-color="#140033"/>
        </linearGradient>
        <linearGradient id="mfgvu99d8Q" x1="82.772" y1="136.61" x2="14.255" y2="97.015" gradientUnits="userSpaceOnUse">
            <stop stop-color="#10241A"/>
            <stop offset=".51" stop-color="#000F12"/>
            <stop offset="1" stop-color="#140033"/>
        </linearGradient>
        <linearGradient id="fkacv6i9gR" x1="93.747" y1="160.337" x2="75.127" y2="149.578" gradientUnits="userSpaceOnUse">
            <stop stop-color="#10241A"/>
            <stop offset=".51" stop-color="#000F12"/>
            <stop offset="1" stop-color="#140033"/>
        </linearGradient>
        <linearGradient id="dcw9vl5vsS" x1="72.36" y1="174.628" x2="-2.958" y2="131.106" gradientUnits="userSpaceOnUse">
            <stop stop-color="#10241A"/>
            <stop offset=".51" stop-color="#000F12"/>
            <stop offset="1" stop-color="#140033"/>
        </linearGradient>
        <linearGradient id="foekoiibpT" x1="69.492" y1="166.213" x2="-.032" y2="126.04" gradientUnits="userSpaceOnUse">
            <stop stop-color="#10241A"/>
            <stop offset=".51" stop-color="#000F12"/>
            <stop offset="1" stop-color="#140033"/>
        </linearGradient>
        <linearGradient id="0u36f6qz8U" x1="72.304" y1="174.985" x2="66.283" y2="171.505" gradientUnits="userSpaceOnUse">
            <stop stop-color="#10241A"/>
            <stop offset=".51" stop-color="#000F12"/>
            <stop offset="1" stop-color="#140033"/>
        </linearGradient>
        <clipPath id="tx499ih3wa">
            <path fill="#fff" transform="translate(.114)" d="M0 0h199.773v180H0z"/>
        </clipPath>
    </defs>
</svg>
