<svg width="481" height="481" viewBox="0 0 481 481" fill="none" xmlns="http://www.w3.org/2000/svg">
    <g clip-path="url(#z79lqre1ga)">
        <path d="M133.646 28.398c-.108-2.702-4.677-.494-5.896.034-3.208 1.41-6.295 3.116-9.321 4.884-7.934 4.646-15.522 9.922-22.528 15.889-15.008 12.78-28.154 29.57-31.918 49.36-1.468 7.707-1.854 17.223 2.241 24.287 1.95 3.373 4.955 6.13 9.078 6.021 4.955-.128 9.28-4.233 12.32-7.761 5.03-5.832 8.942-12.611 12.51-19.404 4.291-8.175 8.177-16.56 12.042-24.938 4.339-9.414 8.611-18.855 13.024-28.236 1.611-3.42 3.263-6.827 4.847-10.26a140.445 140.445 0 0 0 2.146-4.85c.643-1.538 1.523-3.346 1.455-5.032-.02-.407.041.961 0 0v.006z" fill="#FFFAF3" style="mix-blend-mode:soft-light" opacity=".85"/>
        <path d="M169.998 10.423c.033-.284-1.713.576-1.727.583l-3.594 1.727c-2.376 1.145-4.759 2.282-7.128 3.427-3.811 1.829-7.622 3.657-11.44 5.493-5.213 2.506-10.439 5.005-15.644 7.531-5.504 2.675-10.98 5.391-16.341 8.338-15.617 8.58-30.483 18.794-42.593 31.98-13.065 14.224-22.542 31.989-24.884 51.319-1.137 9.427-.582 19.092 2.017 28.249 2.593 9.13 7.386 18.612 15.38 24.132 6.533 4.51 14.399 4.707 21.148.65 3.994-2.404 7.338-5.791 10.242-9.408 7.893-9.793 13.362-21.517 18.419-32.956 6.417-14.528 12.043-29.401 17.905-44.159 5.524-13.911 11.196-27.782 17.681-41.274 3.101-6.447 6.384-12.807 9.965-18.997a196.363 196.363 0 0 1 5.557-9.07c.833-1.28 1.699-2.54 2.586-3.785.684-.955 2.383-2.601 2.457-3.719v-.054c0 .014.027-.27 0 0l-.006-.007z" fill="#FEF6E0" style="mix-blend-mode:soft-light" opacity=".85"/>
        <path d="M201.34 3.041s-5.03 2.093-5.348 2.242c-4.089 1.883-8.171 3.759-12.253 5.642-11.792 5.425-23.577 10.856-35.369 16.282-10.709 4.93-21.418 9.86-32.127 14.778-29.636 13.62-58.535 33.918-72.96 64.125-8.015 16.783-11.007 35.774-7.9 54.169 3.114 18.456 12.49 37.969 28.682 48.324 8.522 5.452 19.103 7.071 28.377 2.472 5.334-2.648 9.795-6.691 13.62-11.202 8.231-9.705 14.08-21.382 19.319-32.902 14.006-30.763 24.112-63.171 36.778-94.488 5.043-12.469 10.411-24.816 16.524-36.797 3.032-5.953 6.234-11.832 9.808-17.48 1.896-3.001 3.879-5.96 6.079-8.744 1.07-1.362 2.64-2.188 3.981-3.285.656-.535 2.971-2.181 2.795-3.136 0-.23.034.203 0 0h-.006z" fill="#FDF3CC" style="mix-blend-mode:soft-light" opacity=".85"/>
        <path d="M231.856.305c0-1.097-4.157 1.097-4.502 1.253-2.64 1.144-5.287 2.296-7.927 3.44-4.752 2.066-9.504 4.125-14.256 6.19-8.279 3.59-16.558 7.187-24.837 10.77-12.184 5.282-24.362 10.565-36.554 15.841-11.244 4.87-22.508 9.699-33.711 14.65-23.34 10.315-45.564 24.355-62.054 44.098-12.205 14.602-20.62 32.306-23.11 51.25-2.33 17.67.527 35.842 7.804 52.083 11.738 26.197 42.91 58.402 73.969 40.82 14.046-7.952 23.266-23.021 30.61-36.946 7.216-13.668 13.187-27.979 18.927-42.317 13.458-33.647 25.304-67.938 39.729-101.2 4.698-10.83 9.667-21.544 15.191-31.98a239.514 239.514 0 0 1 5.117-9.198c1.754-2.987 3.432-6.78 6.289-8.798 2.092-1.483 4.123-3.068 5.916-4.897 1.138-1.158 3.534-3.312 3.412-5.073 0-.934.068.989 0 0l-.013.014z" fill="#FBEFBA" style="mix-blend-mode:soft-light" opacity=".85"/>
        <path d="M263.888.88c.02.082-12.334 4.85-13.518 5.317-4.854 1.944-9.708 3.894-14.561 5.838-8.651 3.468-17.302 6.936-25.954 10.397a49394.52 49394.52 0 0 1-85.09 34c-4.921 1.957-9.849 3.894-14.743 5.912-11.062 4.565-21.825 9.922-32.026 16.16C62.4 88.04 48.001 99.845 36.832 114.407c-12.009 15.652-19.943 34.406-21.384 54.176-2.519 34.595 14.29 69.692 41.983 90.376 14.094 10.532 31.992 17.86 49.788 14.149 19.259-4.017 33.095-19.763 43.561-35.409 10.715-16.017 19.123-33.552 27.063-51.074 5.693-12.57 11.041-25.296 16.362-38.029 12.604-30.139 24.89-60.427 38.341-90.207 4.915-10.884 9.985-21.714 15.488-32.314 2.261-4.354 4.597-8.669 7.081-12.902 1.036-1.768 1.997-3.908 3.479-5.337a36.71 36.71 0 0 0 3.135-3.44c.44-.55 2.491-2.71 2.166-3.516-.041-.162.006.02 0 0h-.007z" fill="#FBEFBA" style="mix-blend-mode:soft-light" opacity=".85"/>
        <path d="M300.09 7.687c-.027-1.754-3.547 1.11-3.865 1.348-1.103.813-2.166 1.673-3.236 2.52-3.452 2.722-6.959 5.364-10.601 7.822-6.979 4.707-14.411 8.703-22.115 12.076-15.556 6.807-32.066 11.128-48.543 15.063-36.622 8.737-73.568 16.343-108.227 31.514-31.66 13.857-62.21 33.972-80.751 63.874-9.559 15.415-15.103 33.181-15.218 51.366-.115 17.507 4.746 34.778 13.288 50.003 9.16 16.323 22.353 30.465 37.95 40.793 16.171 10.708 35.802 17.799 55.406 15.571 19.265-2.188 35.227-13.512 48.13-27.369 11.717-12.584 21.35-27.037 30.184-41.734 17.059-28.385 31.687-58.26 46.079-88.054 16.097-33.322 31.551-66.95 47.013-100.57 2.606-5.662 5.232-11.317 7.798-17a412.07 412.07 0 0 0 3.879-8.811c1.035-2.431 2.958-5.75 2.836-8.405-.014-1.077.034.684 0 0l-.007-.007z" fill="#F6F7C1" style="mix-blend-mode:soft-light" opacity=".85"/>
        <path d="M339.19 20.867c-3.419-1.443-7.988.637-11.19 1.924-3.5 1.408-6.898 3.04-10.283 4.693-8.705 4.24-17.39 8.507-26.352 12.184-15.935 6.536-32.446 11.426-49.166 15.497-36.019 8.77-72.526 15.415-107.625 27.633-33.156 11.54-65.987 27.308-92.015 51.304-13.749 12.672-25.636 27.836-32.933 45.148-6.81 16.16-9.43 33.878-6.661 51.25 5.348 33.485 28.952 61.606 57.857 78.064 17.756 10.111 38.247 16.329 58.805 15.408 20.653-.921 39.533-9.597 55.671-22.175 22.907-17.846 41.049-41.524 57.776-65.026 18.291-25.696 34.97-52.543 50.682-79.885 14.317-24.931 27.91-50.343 40.054-76.404 4.068-8.737 7.988-17.562 11.474-26.55 1.327-3.427 2.599-6.881 3.723-10.383 1.3-4.03 2.484-8.161 3.073-12.367.467-3.346.948-8.683-2.89-10.301-2.078-.874 2.538 1.07 0 0v-.014z" fill="#DAF6B7" style="mix-blend-mode:soft-light" opacity=".85"/>
        <path d="M418.045 371.951c-.169-4.592-.812-9.144-2.85-13.309-1.915-3.949-5.808-7.437-10.478-6.57-7.866 1.443-13.424 9.801-17.431 16.059-7.088 11.073-12.537 23.203-18.014 35.13-4 8.724-7.967 17.461-12.042 26.15-2.992 6.374-6.336 12.679-8.848 19.262-.453 1.185-1.13 2.696-.927 4.01.298 1.977 3.371.704 4.454.298 6.844-2.567 13.241-6.787 19.272-10.844 11.935-8.012 22.894-17.48 31.593-28.987 8.834-11.69 15.495-26.306 15.271-41.199 0 .203-.115-3.272 0 0z" fill="#FFACAC" style="mix-blend-mode:soft-light" opacity=".85"/>
        <path d="M388.254 62.046c-.055-4.517-.745-9.211-3.297-13.044-2.234-3.353-5.727-5.507-9.579-6.516-7.534-1.97-15.84-.528-23.313 1.03-10.283 2.147-20.335 5.29-30.367 8.344-10.296 3.135-20.626 6.15-31.031 8.926-37.339 9.99-75.362 17.318-112.451 28.263-36.643 10.81-72.771 25.392-104.681 46.645C44.177 155.24 16.34 181.735 4.84 215.959c-5.104 15.198-6.383 31.568-2.836 47.254 3.452 15.218 11.237 29.15 21.62 40.718 25.345 28.202 64.952 43.692 102.576 42.547 41.415-1.267 77.008-24.585 107.097-51.223 27.836-24.646 52.652-52.848 75.383-82.215 21.71-28.04 42.004-57.556 58.521-88.982 5.849-11.128 11.244-22.56 15.373-34.447 3.06-8.811 5.68-18.164 5.68-27.565 0 41.998-.068-5.432 0 0z" fill="#ACD2FF" style="mix-blend-mode:soft-light" opacity=".85"/>
        <path d="M434.725 344.548c-.765-9.726-3.622-19.703-9.091-27.85-4.854-7.227-12.496-13.688-21.743-12.611-11.731 1.375-19.882 13.43-25.358 22.682-8.976 15.158-15.38 31.825-21.858 48.148-7.704 19.404-15.191 38.924-24.112 57.813-5.294 11.209-11.034 22.316-18.075 32.543-.697 1.01-1.408 2.012-2.118 3.014-.359.508-2.011 2.696-.596 2.025 3.52-1.652 7.013-3.366 10.519-5.052 29.325-14.094 60.423-26.868 83.757-50.282 18.541-18.605 30.787-43.718 28.675-70.437-.142-1.829.616 7.829 0 0v.007z" fill="#FF9898" style="mix-blend-mode:soft-light" opacity=".85"/>
        <path d="M446.72 329.404c-1.313-18.612-8.34-37.759-21.899-50.952-6.505-6.333-15.027-11.467-24.349-11.467-9.375 0-17.363 5.208-23.584 11.826-9.836 10.457-16.233 23.982-22.034 36.966-3.926 8.798-7.467 17.772-11.19 26.651-8.522 20.352-17.14 40.752-26.935 60.529l-26.793 54.094c-3.175 6.414-6.349 12.828-9.531 19.242-.183.372-.372.752-.562 1.124-.568 1.152 2.308-1.131 2.586-1.402 1.415-1.368 2.518-3.237 4.163-4.287 5.666-3.623 11.826-6.434 18.013-9.021 15.705-6.57 31.918-11.846 47.649-18.362 17.919-7.423 35.397-16.268 50.797-28.175 13.228-10.233 24.735-22.668 32.71-37.447 8.096-15.001 12.178-32.279 10.959-49.333-.365-5.188.65 9.143 0 0v.014z" fill="#FF8686" style="mix-blend-mode:soft-light" opacity=".85"/>
        <path d="M420.455 80.637c-13.362-13.925-35.789-14.385-53.708-13.186-19.157 1.287-38.111 5.005-56.862 8.98-41.888 8.886-83.56 19.235-123.743 34.19-36.08 13.423-70.949 30.545-102.25 53.112-29.264 21.098-57.343 48.006-71.355 81.931-5.558 13.471-8.59 28.148-7.19 42.744 1.26 13.098 6.174 25.601 14.02 36.153 19.313 25.994 52.76 38.49 83.892 42.235 21.425 2.581 43.283 1.084 64.247-3.948 19.354-4.64 37.922-12.185 55.597-21.267 36.466-18.727 69.69-43.719 100.091-71.094 26.434-23.807 50.959-50.106 71.531-79.182 10.242-14.473 19.59-29.78 26.448-46.17 6.302-15.063 11.65-32.794 7.581-49.123-1.428-5.737-4.197-11.101-8.306-15.381-1.218-1.267 10.513 10.938 0 0l.007.006z" fill="#72C4FF" style="mix-blend-mode:soft-light" opacity=".85"/>
        <path d="M456.773 314.266c-1.131-18.632-8.164-37.122-19.388-51.988-11.21-14.846-29.169-29.191-48.935-26.861-19.36 2.276-32.31 19.858-41.279 35.551-8.997 15.733-15.732 32.55-22.82 49.191-12.536 29.434-25.669 58.592-39.471 87.457-10.628 22.229-21.534 44.315-32.574 66.347-.19.386-3.771 6.644-2.85 6.983 1.293.474 3.581-2.411 4.305-3.211 1.503-1.659 2.877-3.433 4.177-5.248 1.144-1.599 1.97-2.899 3.648-3.936a86.36 86.36 0 0 1 3.757-2.18c11.4-6.225 23.93-10.268 36.277-14.135 30.882-9.685 62.393-18.185 90.621-34.515 15.718-9.089 30.38-20.494 41.834-34.677 12.821-15.868 21.161-35.083 22.677-55.523.325-4.409.291-8.839.021-13.255.494 8.019-.413-6.806 0 0z" fill="#8AFF72" style="mix-blend-mode:soft-light" opacity=".85"/>
        <path d="M465.227 293.738c-2.288-19.154-10.208-37.501-22.074-52.659-12.016-15.354-28.736-28.649-48.069-33.017-9.667-2.188-19.8-1.64-29.034 2.025-8.928 3.535-16.591 9.698-23.063 16.701-7.466 8.074-13.613 17.291-19.177 26.746-7.358 12.51-13.607 25.642-19.645 38.822-8.82 19.242-17.261 38.653-25.933 57.962a3830.933 3830.933 0 0 1-41.381 89.029 5082.6 5082.6 0 0 1-9.511 19.668c-1.733 3.549-3.459 7.098-5.198 10.647-.894 1.822-1.788 3.644-2.681 5.459-.237.481-2.166 4.883-2.187 4.883 1.023-.027 2.593-2.783 3.128-3.542.92-1.293 1.712-3.136 2.884-4.206 2.389-2.187 4.867-4.24 7.52-6.102 5.734-4.03 12.002-7.247 18.433-9.99 15.035-6.414 30.99-10.484 46.776-14.562 37.962-9.807 76.493-19.77 109.947-41.043 16.761-10.654 32.06-24.111 43.039-40.786 11.339-17.223 17.628-37.454 16.856-58.152a99.56 99.56 0 0 0-.609-7.883c-2.559-21.443 1.645 13.993 0 0h-.021z" fill="#7FFC66" style="mix-blend-mode:soft-light" opacity=".85"/>
        <path d="M459.149 144.763c-7.893-43.882-59.069-54-96.456-53.635-41.537.407-82.992 11.189-121.57 26.022-37.875 14.568-74.178 33.81-107.49 57.007-31.769 22.127-61.804 48.371-84.57 79.892-16.185 22.411-31.409 50.945-27.516 79.594 1.448 10.654 5.896 20.678 13.01 28.758 7.927 8.994 18.535 15.191 29.69 19.302 14.588 5.378 30.266 7.464 45.741 7.925 14.161.42 28.343-.569 42.362-2.52 30.462-4.24 60.274-12.889 88.895-24.037 30.238-11.771 59.373-26.481 86.877-43.691 26.136-16.357 50.993-35.043 73.061-56.621 18.744-18.327 35.986-39.073 47.426-62.818 8.116-16.837 13.897-36.404 10.54-55.172-.325-1.801 1.482 8.27 0 0v-.006z" fill="#5AA3F9" style="mix-blend-mode:soft-light" opacity=".85"/>
        <path d="M469.573 259.549c-5.625-19.168-16.896-36.432-31.335-50.126-12.543-11.907-27.971-21.47-44.752-25.96-18.697-4.999-38.036-2.649-54.439 7.815-16.997 10.844-29.825 27.336-40.893 43.915-17.6 26.354-31.87 54.935-45.889 83.3-15.569 31.5-30.415 63.353-45.138 95.253-6.106 13.227-12.252 26.434-18.277 39.702a629.093 629.093 0 0 0-4.556 10.207c-.744 1.713-1.475 3.44-2.132 5.188-.46 1.212-1.408 3.088-1.164 4.443.264 1.483 3.276-1.043 3.838-1.47 1.53-1.158 3.026-2.357 4.542-3.529 3.919-3.047 7.92-5.994 12.117-8.649 29.264-18.557 64.491-24.504 97.695-32.198 39.648-9.184 79.647-21.002 113.914-43.657 31.883-21.084 58.73-53.296 60.382-93.012.433-10.531-.934-21.104-3.913-31.209-3.75-12.78 8.875 30.078 0 0v-.013z" fill="#6DF44F" style="mix-blend-mode:soft-light" opacity=".85"/>
        <path d="M475.869 193.9c-1.232-14.826-6.973-28.853-16.375-40.36-9.43-11.541-21.933-20.264-35.343-26.57-31.815-14.968-69.026-17.446-103.218-10.592-37.841 7.585-72.736 26.177-104.423 47.687-31.207 21.186-60.241 45.9-86.39 73.079-24.614 25.581-47.866 53.851-64.167 85.555-7.696 14.974-14.398 31.642-14.946 48.683-.318 9.935 1.963 20.115 8.637 27.748 6.39 7.308 15.753 11.121 25.087 12.956 18.542 3.658 38.139 1.05 56.578-1.957 18.697-3.054 37.245-7.172 55.705-11.432 38.341-8.859 76.385-19.527 112.905-34.298 36.094-14.596 70.699-33.329 101.073-57.833 15.657-12.625 30.096-27.051 41.814-43.448 11.758-16.451 20.978-35.456 22.941-55.801.433-4.457.494-8.947.129-13.411-4.36-52.476 1.469 17.806 0 0l-.007-.006z" fill="#43BDF1" style="mix-blend-mode:soft-light" opacity=".85"/>
        <path d="M373.388 157.123c-16.828-1.416-33.535 1.951-48.57 9.617-15.102 7.708-28.058 19.025-39.702 31.216-25.52 26.719-46.234 57.949-65.723 89.205-16.639 26.692-32.188 54.061-46.654 81.986-7.297 14.08-14.358 28.297-20.768 42.811-2.87 6.488-5.605 13.037-8.015 19.709-2.139 5.926-4.183 12.069-4.996 18.347-.474 3.624-.697 9.367 3.954 10.234 2.2.406 4.535-.223 6.613-.887 7.541-2.405 14.622-6.407 21.723-9.841 16.916-8.182 34.307-14.839 52.408-19.892 17.417-4.863 35.133-8.541 52.773-12.482 20.024-4.477 39.96-9.381 59.537-15.571 33.9-10.721 67.442-25.635 95.095-48.372 27.131-22.309 48.854-54.162 48.116-90.512-.643-31.561-18.331-60.204-42.613-79.445-17.999-14.264-40.155-24.193-63.171-26.123-42.586-3.576 62.867 5.263 0 0h-.007z" fill="#58EE37" style="mix-blend-mode:soft-light" opacity=".85"/>
        <path d="M354.725 134.36c-19.401.69-38.03 5.96-55.312 14.724-17.14 8.689-32.695 20.25-47.25 32.733-29.872 25.621-56.056 55.442-80.162 86.469-12.591 16.214-24.518 32.936-35.606 50.213-9.741 15.178-19.022 30.722-26.915 46.95-6.16 12.665-11.887 25.77-14.967 39.567-2.078 9.305-3.967 22.661 4.15 29.746 6.275 5.479 15.799 4.856 23.516 3.772 7.616-1.07 15.082-3.081 22.468-5.188 9.409-2.688 18.744-5.635 28.126-8.405 20.146-5.946 40.535-10.945 60.985-15.699 39.783-9.245 79.539-18.72 117.359-34.46 33.928-14.122 67.091-32.964 92.882-59.52 24.498-25.215 42.62-59.743 35.397-95.714-5.761-28.676-26.495-51.731-51.19-66.191-22.02-12.888-47.927-19.919-73.481-19.004-20.125.718 65.73-2.35 0 0v.007z" fill="#119CEA" style="mix-blend-mode:soft-light" opacity=".85"/>
    </g>
    <defs>
        <clipPath id="z79lqre1ga">
            <path fill="#fff" d="M0 0h481v481H0z"/>
        </clipPath>
    </defs>
</svg>
