<svg width="174" height="181" viewBox="0 0 174 181" fill="none" xmlns="http://www.w3.org/2000/svg">
    <path d="M171.535 129.429c-.434-.332-.924-.593-1.398-.861-5.608-3.168-50.986-28.352-51.95-28.888C90.462 84.293 91.32 84.75 90.351 84.394c-2.558-.94-5.037-1.007-7.513-.198-.476.156-.964.325-1.41.558-2.177 1.135-73.12 41.968-77.695 44.649-.447.263-.91.517-1.32.84-.41.319-.782.684-1.084 1.107-.28.393-.471.861-.48 1.345-.01.494.193.965.47 1.364.604.868 1.502 1.423 2.407 1.933 6.2 3.509 69.615 38.707 77.08 42.815.908.499 1.806 1.038 2.775 1.411 2.065.795 4.142.955 6.044.61.99-.179 1.987-.475 2.892-.918.677-.331 1.349-.705 38.059-21.812 41.435-23.82 40.396-23.237 40.971-23.674.745-.565 1.589-1.425 1.605-2.427.014-1.072-.766-1.921-1.615-2.573l-.002.005z" fill="#459DFF" style="mix-blend-mode:soft-light" opacity=".85"/>
    <path d="M173.169 121.417c-.059-.969-.83-1.741-1.547-2.31-.589-.468 2.919 1.451-65.089-36.287-10.15-5.631-15.479-8.543-15.986-8.736-2.54-.985-5.132-1.131-7.746-.263-.486.162-.976.338-1.429.576-2.187 1.14-72.594 41.66-77.688 44.644-.955.56-2.732 1.6-2.857 3.199-.07.929.655 1.801 1.365 2.389.41.341.856.607 1.318.875 2.71 1.568 46.714 25.991 47.29 26.311 32.722 18.166 31.756 17.609 32.446 17.901.967.407 1.985.679 3.022.823 1.037.146 2.115.132 3.15-.042a12.13 12.13 0 0 0 3-.911c1.266-.576 73.37-42.093 77.759-44.665.434-.254.889-.497 1.29-.802.726-.548 1.548-1.306 1.68-2.256.022-.15.029-.298.022-.449v.003z" fill="#688FD3" style="mix-blend-mode:soft-light" opacity=".85"/>
    <path d="M171.563 108.682c-.408-.31-.856-.56-1.301-.813-2.737-1.553-9.191-5.141-13.064-7.295C88.151 62.182 91.39 64.033 90.459 63.671c-2.458-.955-5.091-1.087-7.649-.233-.495.167-.995.35-1.459.59-2.235 1.162-72.906 41.839-77.693 44.649-.875.513-1.79 1.071-2.37 1.934-.605.903-.645 1.782 0 2.697.602.849 1.479 1.409 2.37 1.914 6.305 3.577 59.455 33.063 65.348 36.329 13.823 7.669 13.76 7.613 14.443 7.878 1.966.765 4.057 1.066 6.166.668.903-.169 2.134-.522 2.928-.936 2.447-1.272 73.153-41.98 77.677-44.632.457-.269.926-.527 1.346-.852.756-.585 1.565-1.399 1.612-2.413.042-1.07-.769-1.935-1.615-2.577v-.005z" fill="#688FD3" style="mix-blend-mode:soft-light" opacity=".85"/>
    <path d="M173.178 100.675c-.038-1.028-.922-1.844-1.683-2.422-.401-.306-.851-.546-1.289-.793-6.997-3.965-67.091-37.305-75.473-41.93-2.98-1.647-3.62-1.993-4.354-2.268-2.567-.955-5.127-1.063-7.835-.11-.479.169-.957.362-1.405.606-4.554 2.51-68.366 39.255-74.827 42.992-2.821 1.632-3.552 2.043-4.125 2.525-.394.33-.752.704-1.018 1.139-.26.421-.417.947-.335 1.444.087.512.335.976.677 1.364.332.378.711.703 1.12.999.43.315.916.56 1.38.823 5.443 3.086 68.003 37.825 76.888 42.705.942.517 1.876 1.06 2.89 1.43a11.91 11.91 0 0 0 3.11.679c2.179.181 4.442-.407 6.12-1.329 3.741-2.06 74.457-42.73 77.686-44.668.432-.258.851-.526 1.228-.865.672-.604 1.292-1.373 1.247-2.324l-.002.003z" fill="#9ACDD2" style="mix-blend-mode:soft-light" opacity=".85"/>
    <path d="M173.178 90.269c-.118-1.087-.969-1.875-1.808-2.486-.424-.31-.9-.553-1.355-.811-5.172-2.928-74.285-41.336-78.448-43.55-.96-.507-1.99-.855-3.05-1.083-1.994-.428-4.151-.276-6.339.571-.985.381-1.892.94-2.807 1.463-7.489 4.259-74.723 42.892-76.404 43.962-.855.544-1.815 1.322-2.081 2.35-.278 1.075.382 2.027 1.162 2.702.801.694 1.763 1.176 2.682 1.69 9.783 5.492 58.706 32.64 68.55 38.091 9.353 5.181 9.408 5.188 9.98 5.43 1.443.607 3.142.967 4.703.913a11.233 11.233 0 0 0 3.19-.558c.513-.171 1.03-.359 1.51-.609 2.171-1.129 72.413-41.552 77.766-44.691.903-.532 1.825-1.13 2.386-2.04a2.34 2.34 0 0 0 .363-1.342v-.002z" fill="#9ACDD2" style="mix-blend-mode:soft-light" opacity=".85"/>
    <path d="M173.183 79.984c-.05-1.039-.844-1.846-1.627-2.438-.431-.327-.907-.588-1.376-.854-5.507-3.13-60.814-33.817-66.403-36.912-12.552-6.961-12.488-6.914-13.355-7.253-2.494-.966-5.172-1.07-7.798-.155-.504.176-.992.381-1.466.628-1.794.931-74.881 42.975-77.623 44.621-.867.522-1.78 1.091-2.324 1.976-.627 1.018-.48 1.923.271 2.838.656.793 1.547 1.3 2.428 1.801 5.764 3.27 68.625 38.171 76.989 42.761.926.508 1.845 1.042 2.838 1.414 2.003.745 4.139.945 6.275.479a11.142 11.142 0 0 0 2.981-1.093c3.88-2.138 68.243-39.168 76.324-43.866.877-.51 1.803-.988 2.579-1.651.655-.562 1.343-1.376 1.289-2.296h-.002z" fill="#ABD9EE" style="mix-blend-mode:soft-light" opacity=".85"/>
    <path d="M173.178 69.569c-.028-1.004-.867-1.827-1.615-2.394-.403-.308-.846-.555-1.287-.804-6.697-3.796-67.269-37.406-75.508-41.952-2.737-1.512-3.533-1.955-4.302-2.253-2.465-.957-5.091-1.09-7.635-.242-.495.166-.994.345-1.459.585C79.34 23.565 9.33 63.84 3.698 67.144c-.896.527-1.799 1.082-2.404 1.95-.599.858-.656 1.785-.022 2.686.604.855 1.48 1.42 2.379 1.928 6.336 3.59 69.643 38.735 76.83 42.678 1.693.929 3.272 1.974 5.929 2.293 1.065.13 2.135.087 3.191-.091 1.014-.172 1.997-.508 2.93-.932 1.261-.571 74.518-42.777 77.618-44.595.702-.411 2.892-1.543 3.027-3.283.004-.07.004-.14 0-.21h.002z" fill="#ABD9EE" style="mix-blend-mode:soft-light" opacity=".85"/>
    <path d="M173.169 59.158c-.057-.971-.833-1.743-1.552-2.314-.396-.315-.841-.562-1.279-.812-7.034-3.983-63.242-35.16-72.673-40.385-6.065-3.354-6.42-3.547-7.114-3.822-2.534-1.004-5.188-1.117-7.724-.273-1.19.395-1.424.55-2.999 1.437-5.303 2.99-56.572 32.494-61.89 35.556C2.99 57.154 2.93 57.188 2.354 57.64 1.202 58.55.88 59.346.83 59.97c-.035.457.128.915.363 1.296.547.89 1.44 1.472 2.324 1.983 2.87 1.662 72.355 40.249 78.314 43.492.45.245.898.496 1.37.696 3.16 1.331 6.359 1.192 9.18-.094.67-.303-.42.341 52.825-30.28 12.208-7.025 21.66-12.462 24.935-14.381.438-.256.898-.499 1.303-.807.759-.573 1.504-1.293 1.697-2.26.031-.15.033-.305.024-.46l.005.002z" fill="#A1F7FF" style="mix-blend-mode:soft-light" opacity=".85"/>
    <path d="M171.526 46.41c-.432-.33-.917-.589-1.389-.854-4.933-2.787-37.944-21.111-37.368-20.792C89.483.718 91.287 1.727 90.353 1.384c-2.557-.939-5.037-1.01-7.51-.2-1.11.364-1.33.491-2.87 1.364C75.207 5.236 9.434 43.05 3.752 46.38c-.453.264-.92.517-1.33.844-.802.635-1.558 1.46-1.575 2.481-.01.485.2.953.472 1.343.624.9 1.565 1.458 2.503 1.987 5.876 3.328 69.676 38.74 76.984 42.761.914.501 1.82 1.042 2.793 1.418 2.032.781 4.106.948 6.023.602.867-.157 2.128-.52 2.899-.921 2.114-1.103 72.755-41.755 77.646-44.614.462-.273.94-.532 1.367-.859.745-.571 1.598-1.423 1.615-2.431.014-1.08-.764-1.924-1.627-2.583h.003z" fill="#96FFFF" style="mix-blend-mode:soft-light" opacity=".85"/>
</svg>
