<svg width="292" height="180" viewBox="0 0 292 180" fill="none" xmlns="http://www.w3.org/2000/svg">
    <path d="M13.526 90.775c-.937-3.023-4.15-7.893-6.462-10.244-1.728-1.756-2.774-1.55-3.937.26C2.09 82.4 1.205 85.18.824 87.05.362 89.287.47 91.557.89 93.766c.405 2.167 1.446 6.66 3.636 6.952 2.27.302 6.17-2.256 7.512-3.636 1.587-1.601 2.374-3.457 1.493-6.306h-.005z" fill="#5EFFAA" style="mix-blend-mode:soft-light" opacity=".85"/>
    <path d="M32.154 90.63c-1.776-3.81-4.993-8.676-7.39-12.03-5.44-7.625-7.098-8.275-8.478-7.074-1.936 1.686-4.112 8.332-4.865 10.786-1.535 4.973-1.663 7.743-.509 13.442.42 2.072 1.032 4.606 1.644 6.636.82 2.708 1.813 5.073 3.429 5.369 3.033.556 10.244-3.937 12.547-5.595 4.663-3.358 6.212-5.963 3.617-11.53l.005-.005z" fill="#80E4F6" style="mix-blend-mode:soft-light" opacity=".85"/>
    <path d="M44.612 81.087c-2.35-3.617-5.318-7.908-8.012-11.464-6.933-9.151-7.96-8.92-12.265 2.426-5.152 13.578-4.968 16.654-3.683 23.267 1.05 5.397 2.497 11.007 3.288 13.503 1.898 6.01 3.287 6.401 6.674 5.313 4.107-1.319 13.329-6.391 18.208-10.404 5.864-4.823 5.2-8.172-4.206-22.64h-.004z" fill="#3DEDBA" style="mix-blend-mode:soft-light" opacity=".85"/>
    <path d="M63.55 82.971c-5.534-8.902-14.19-21.552-18.44-25.88-2.933-2.996-4.323-2.577-6.8 2.962-1.814 4.055-8.12 20.643-8.553 26.418-.208 2.731-.057 5.369 1.766 13.569a288.171 288.171 0 0 0 2.491 10.362c2.888 11.044 3.961 12.123 9.684 9.862 6.071-2.392 18.03-9.297 23.973-14.309 5.972-5.044 5.238-7.903-4.12-22.989v.005z" fill="#7ACFE3" style="mix-blend-mode:soft-light" opacity=".85"/>
    <path d="M82.112 84.987C77.03 76.462 64.672 57.1 58.101 49.978c-3.236-3.5-4.654-3.603-7.093 1.493-2.534 5.28-8.846 22.923-10.612 29.8-1.55 6.02-1.342 9.066 3 27.275 4.475 18.755 5.45 20.342 10.296 18.858 7.847-2.402 27.016-14.304 32.805-19.894 4.832-4.673 4.606-7.447-4.385-22.528v.005z" fill="#79DAC1" style="mix-blend-mode:soft-light" opacity=".85"/>
    <path d="M103.321 104.66c.786-3.956-.923-9.48-2.313-13.38-4.196-11.775-18.59-33.271-25.316-42.376-3.55-4.808-6.278-8.152-8.096-8.962-2.105-.942-3.707 2.496-5.106 5.694-2.816 6.448-11.21 29.587-12.664 36.657-1.05 5.106-.641 8.666 3.767 27.421 4.334 18.435 5.94 23.408 8.252 24.383 1.385.58 3.504-.15 4.913-.692 8.186-3.146 23.559-12.731 29.743-18.086 3.306-2.868 5.953-6.316 6.82-10.659z" fill="#79DAC1" style="mix-blend-mode:soft-light" opacity=".85"/>
    <path d="M110.527 114.678a61.728 61.728 0 0 0 2.43-6.594c1.653-5.487 1.521-8.407-1.512-20.426-3.377-13.381-6.547-21.275-17.685-37.934-12.086-18.048-14.102-18.52-15.845-17.012-1.125.975-2.293 2.797-5.948 12.34-2.666 6.952-6.693 18.213-9.439 26.564-2.675 8.129-3.203 10.969-3.32 13.465-.16 3.363.047 7.258 6.65 34.378 1.272 5.223 3.264 13.173 4.686 16.998 1.79 4.813 3.406 5.007 7.602 3.443 6.288-2.341 20.677-10.762 26.536-16.367 2.058-1.978 3.937-4.498 5.845-8.855z" fill="#3ADACB" style="mix-blend-mode:soft-light" opacity=".85"/>
    <path d="M116.909 124.395c1.719-3.674 3.763-9.25 5.035-13.122 2.924-8.921 2.99-10.522-.914-27.162-3.127-13.296-5.831-23.15-9.184-30.629-4.178-9.311-13.49-22.588-17.107-26.544-3.542-3.872-4.776-3.35-8.332 5.209-2.887 6.942-7.366 19.343-9.839 26.403-8.487 24.252-8.6 25.01-6.165 37.067 1.757 8.714 5.492 24.544 8.063 34.661 4.004 15.768 5.05 17.473 8.77 16.748 4.126-.805 17.865-8.266 23.752-13.89 2.605-2.486 4.282-5.246 5.921-8.746v.005z" fill="#76DEAB" style="mix-blend-mode:soft-light" opacity=".85"/>
    <path d="M128.561 120.646c1.507-4.164 4.503-12.599 5.204-16.81.698-4.182.608-7.95-6.852-37.934-2.016-8.115-4.856-19.334-8.092-27.02-3.391-8.068-11.53-20.361-14.488-21.553-2.345-.947-4.083 2.835-10.065 18.779-4.837 12.886-11.506 31.702-13.95 40.26-2.436 8.53-2.6 9.938 6.593 47.895 6.745 27.873 7.626 29.861 11.624 29.135 3.509-.636 12.293-5.571 16.678-9.043 5.322-4.21 7.673-8.025 13.348-23.709z" fill="#5BE3B1" style="mix-blend-mode:soft-light" opacity=".85"/>
    <path d="M135.211 129.463c1.927-5.21 7.786-21.2 8.554-26.71.621-4.489.174-8.214-6.076-34.59-8.652-36.54-11.695-45.554-17.154-53.646-3.612-5.35-4.808-4.983-6.005-3.796-3.094 3.071-16.084 40.176-17.535 44.316-8.171 23.314-8.93 26.474-7.894 33.548 1.536 10.456 9.773 44.137 12.665 55.271 2.84 10.899 4.155 15.034 6.227 15.769 3.108 1.097 12.293-4.833 15.156-7.348 4.352-3.824 6.688-8.294 12.067-22.814h-.005z" fill="#60E9D6" style="mix-blend-mode:soft-light" opacity=".85"/>
    <path d="M141.801 138.247c1.869-4.965 11.266-30.238 11.944-36.775.386-3.707.014-6.929-3-20.484-3.147-14.162-12.076-51.917-16.485-65.684-.947-2.948-2.887-8.59-4.889-10.922-.81-.942-1.564-1.418-2.642-.391-3.923 3.74-22.561 58.012-24.642 64.403-2.36 7.248-3.208 10.607-3.415 13.428-.24 3.353-.688 6.533 11.308 55.115 5.893 23.879 7.282 28.834 10.113 28.999 2.562.156 7.022-2.717 9.043-4.305 4.818-3.782 7.22-8.939 12.669-23.389l-.004.005z" fill="#60E9D6" style="mix-blend-mode:soft-light" opacity=".85"/>
    <path d="M148.46 146.668c2.935-7.734 13.169-35.55 14.818-43.562.975-4.729.475-8.2-1.38-17.078-1.343-6.43-18.407-81.698-22.127-85.541-1.559-1.606-3.005.49-7.098 10.418-5.219 12.66-19 50.292-22.725 63.33-2.285 7.997-2.035 10.319 1.7 27.208 4.705 21.256 11.619 49.082 14.247 58.719 2.92 10.621 3.862 12.707 7.315 11.412 6.674-2.506 9.961-10.936 15.246-24.906h.004z" fill="#64EBC9" style="mix-blend-mode:soft-light" opacity=".85"/>
    <path d="M155.492 153.94a1151.794 1151.794 0 0 0 9.66-26.408c9.166-26.103 9.411-27.426 7.611-37.284-1.219-6.693-4.535-21.016-6.08-27.6-13.616-58.03-15.213-60.607-17.728-59.9-1.917.536-3.405 2.806-4.597 4.855-5.03 8.629-20.559 53.076-23.677 63.15-3.438 11.12-3.381 11.483 2.591 37.703 3.645 15.972 8.464 35.612 11.732 48.348 4.785 18.651 5.892 22.136 9.227 19.866 3.264-2.214 6.674-10.635 11.266-22.725l-.005-.005z" fill="#87EEE3" style="mix-blend-mode:soft-light" opacity=".85"/>
    <path d="M162.628 160.736c2.896-7.512 7.06-18.792 9.825-26.507 10.785-30.063 11.021-33.407 11.073-36.883.051-3.561-.669-8.822-7.579-38.042-10.748-45.554-12.495-49.176-14.087-50.665-2.105-1.964-6.726 1.649-8.586 3.9-2.628 3.175-4.832 8.469-6.42 12.34-4.587 11.167-15.533 41.565-17.695 50.165-1.738 6.92-1.469 9.142 5.2 37.83a2086.192 2086.192 0 0 0 9.264 38.089c6.726 26.621 8.2 29.861 10.037 28.891 2.167-1.145 6.862-13.65 8.977-19.118h-.009z" fill="#92F0E4" style="mix-blend-mode:soft-light" opacity=".85"/>
    <path d="M168.6 169.822c4.493-10.418 18.204-47.773 22.815-62.981 1.497-4.955 2.392-8.464 1.799-13.48-1.295-10.95-14.064-62.971-16.951-72.302-1.884-6.08-2.93-7.545-5.704-6.89-2.604.612-8.12 3.627-11.28 7.828-2.925 3.886-5.911 10.927-11.243 25.593-10.267 28.255-10.46 30.798-9.598 37.176 1.356 10.022 15.467 69.287 20.167 82.461.862 2.425 3.599 10.084 5.944 9.25 1.508-.532 3.222-4.738 4.051-6.66v.005z" fill="#BFF2EC" style="mix-blend-mode:soft-light" opacity=".85"/>
    <path d="M179.202 166.544c3.876-7.88 16.169-41.942 20.804-56.312 2.378-7.366 3.103-10.442 3.231-13.423.164-3.801-.335-7.743-5.765-31.142-1.762-7.607-4.767-20.008-6.688-27.464-3.834-14.873-4.965-18.217-7.946-18.006-3.273.231-9.669 4.178-12.312 6.166-5.308 3.99-7.62 7.682-13.658 23.95-2.111 5.694-5.163 14.29-6.966 20.167-2.699 8.817-2.563 10.579 1.153 27.205 10.781 48.262 14.823 58.12 18.247 64.234 1.078 1.926 4.342 7.403 6.462 8.035 1.446.433 2.769-2.054 3.438-3.415v.005z" fill="#BFF2EC" style="mix-blend-mode:soft-light" opacity=".85"/>
    <path d="M208.818 112.728c3.82-11.393 4.672-14.991 4.187-20.073-.867-9.119-10.814-49.464-13.485-58.483-1.978-6.688-3.254-7.78-5.228-7.691-3.353.15-15.542 6.513-20.794 12.142-2.948 3.16-5.143 8.087-6.763 12.076-2.393 5.883-5.643 15.053-7.098 19.89-2.454 8.157-2.402 9.782 1.573 27.2 8.633 37.872 11.869 44.687 17.333 53.485 1.351 2.171 7.356 11.747 9.904 11.511.542-.052.98-.447 1.343-.819 3.462-3.57 17.365-44.255 19.028-49.238z" fill="#C3F4DF" style="mix-blend-mode:soft-light" opacity=".85"/>
    <path d="M206.67 145.194c2.826-7.065 7.15-19.089 9.74-26.559 8.012-23.107 7.885-22.26 3.834-40.703-1.757-8.007-5.237-22.726-7.39-30.897-2.11-8.026-3.141-11.2-4.526-13.018-1.422-1.87-3.504-1.616-9.307 1.177-3.433 1.653-8.28 4.423-12.104 7.023-7.527 5.114-10.725 8.166-16.631 25.824-1.945 5.817-2.703 8.93-2.199 13.362.645 5.661 6.56 32.503 11.605 44.023 4.771 10.904 15.905 26.687 19.277 29.235 2.525 1.903 3.844.183 7.701-9.467z" fill="#C3F5D0" style="mix-blend-mode:soft-light" opacity=".85"/>
    <path d="M223.908 124.456c1.936-5.369 4.983-14.073 6.844-20.111 2.925-9.444 2.793-11.431-.744-27.337a844.256 844.256 0 0 0-4.013-17.101c-4.55-18.524-5.633-21.29-9.429-20.62-5.883 1.04-24.134 11.845-29.838 17.747-3.136 3.25-5.152 7.616-6.692 11.883-1.946 5.369-2.106 7.691-2.04 9.933.132 4.54 3.335 17.973 6.707 26.983 4.979 13.301 20.644 35.352 25.038 39.93 4.427 4.616 5.44 2.93 14.163-21.307h.004z" fill="#BEF7C1" style="mix-blend-mode:soft-light" opacity=".85"/>
    <path d="M236.163 116.784c6.345-17.997 6.957-21.096 6.302-26.819-.631-5.524-7.71-37.735-10.597-42.389-1.399-2.256-2.784-2.553-7.343-.72-8.379 3.362-24.19 13.32-29.823 18.524-3.353 3.099-5.963 7.173-6.212 11.581-.109 1.97.221 3.961.923 6.637 2.331 8.92 6.58 16.767 15.689 31.033 2.632 4.126 14.652 22.603 18.863 25.175 2.736 1.667 4.479-1.088 12.203-23.018l-.005-.004z" fill="#BDF9B9" style="mix-blend-mode:soft-light" opacity=".85"/>
    <path d="M243.511 122.511c1.992-5.167 7.8-20.94 8.723-26.738.664-4.164.259-8.097-3.556-24.044-1.569-6.557-3.471-14.12-4.823-16.82-1.682-3.358-3-4.012-11.817.32-5.911 2.902-12.764 7.127-18.143 10.768-12.481 8.426-13.239 11.082-9.707 18.57 4.38 9.28 18.232 30.95 26.432 41.481 4.102 5.27 5.982 6.956 7.456 6.349 1.592-.66 3.094-3.825 5.43-9.882l.005-.004z" fill="#BFFAB4" style="mix-blend-mode:soft-light" opacity=".85"/>
    <path d="M255.865 114.561c1.418-3.707 3.452-9.505 4.611-13.287 2.393-7.804 2.44-9.957.221-20.328-.673-3.165-2.105-9.293-3.33-13.673-2.354-8.44-3.579-9.48-8.082-7.931-5.812 2.006-18.298 9.283-24.091 13.96-5.741 4.63-6.029 7.032-1.926 14.845 4.545 8.667 18.585 29.833 23.771 34.873 3.433 3.339 4.667 2.444 8.831-8.469l-.005.01z" fill="#C0FCAF" style="mix-blend-mode:soft-light" opacity=".85"/>
    <path d="M268.101 106.761c4.319-11.728 4.461-14.77 3.589-20.187-.65-4.04-2.19-10.446-3.108-13.677-1.663-5.845-2.798-7.852-5.431-7.466-4.14.603-13.809 6.208-18.415 9.604-4.833 3.556-6.557 6.062-4.4 11.454 2.384 5.968 10.937 18.411 15.011 23.785 4.455 5.874 6.113 7.004 7.399 6.538 1.686-.617 3.335-4.541 5.36-10.046l-.005-.005z" fill="#C0FDAA" style="mix-blend-mode:soft-light" opacity=".85"/>
    <path d="M277.691 105.442c.961-2.096 1.79-4.38 2.524-6.603 1.875-5.67 2.021-8.506 1.102-13.461-.532-2.854-1.917-9.194-3.471-11.662-1.158-1.846-2.661-2.84-10.484 1.635-1.893 1.083-4.051 2.468-5.723 3.895-1.686 1.44-3.132 3.141-3.028 5.732.188 4.686 7.215 14.558 10.013 18.293 1.404 1.874 4.253 5.642 5.986 5.661 1.357.014 2.52-2.265 3.081-3.49z" fill="#C1FFA5" style="mix-blend-mode:soft-light" opacity=".85"/>
    <path d="M289.946 97.007c.862-2.167 1.455-4.385 1.526-6.684.094-3.15-1.178-10.079-3.556-10.955-2.223-.82-8.487 2.779-9.472 5.76-.395 1.192-.409 2.195-.155 3.4.725 3.373 6.278 12.044 8.699 12.129 1.347.047 2.459-2.402 2.953-3.65h.005z" fill="#C2FFA0" style="mix-blend-mode:soft-light" opacity=".85"/>
</svg>
